<?xml version="1.0" encoding="utf-8"?>
<!-- Generator: Adobe Illustrator 25.0.0, SVG Export Plug-In . SVG Version: 6.00 Build 0)  -->
<svg version="1.1" id="Layer_1" xmlns="http://www.w3.org/2000/svg" xmlns:xlink="http://www.w3.org/1999/xlink" x="0px" y="0px"
	 viewBox="0 0 1000 337.7" style="enable-background:new 0 0 1000 337.7;" xml:space="preserve">
<style type="text/css">
	.st0{fill:url(#SVGID_1_);}
	.st1{fill:url(#SVGID_2_);}
	.st2{fill:url(#SVGID_3_);}
	.st3{fill:#18266A;}
</style>
<g>
	<g>
		<g>
			<linearGradient id="SVGID_1_" gradientUnits="userSpaceOnUse" x1="263.5617" y1="260.9051" x2="408.4232" y2="260.9051">
				<stop  offset="0.2903" style="stop-color:#0796E5"/>
				<stop  offset="0.8495" style="stop-color:#6AC0EF"/>
			</linearGradient>
			<path class="st0" d="M373.8,236.1v-52L272.1,285.8l0.2,0c-11.8,11.9-11.8,31.2,0.1,43.1c11.9,11.9,31.3,11.9,43.2,0l92.7-92.7
				H373.8z"/>
			<linearGradient id="SVGID_2_" gradientUnits="userSpaceOnUse" x1="373.7963" y1="260.9051" x2="484.6485" y2="260.9051">
				<stop  offset="0.2903" style="stop-color:#0796E5"/>
				<stop  offset="0.8495" style="stop-color:#6AC0EF"/>
			</linearGradient>
			<path class="st1" d="M475.7,285.6l-43.2-43.2l-58.7-58.3v86.4l58.7,58.3c11.9,11.9,31.3,11.9,43.2,0
				C487.6,316.8,487.6,297.5,475.7,285.6z"/>
		</g>
		<linearGradient id="SVGID_3_" gradientUnits="userSpaceOnUse" x1="1.8678" y1="170.8327" x2="724.8157" y2="170.8327">
			<stop  offset="0" style="stop-color:#F12711"/>
			<stop  offset="0.185" style="stop-color:#F12A11"/>
			<stop  offset="0.3143" style="stop-color:#F13312"/>
			<stop  offset="0.4267" style="stop-color:#F24213"/>
			<stop  offset="0.5294" style="stop-color:#F25814"/>
			<stop  offset="0.6255" style="stop-color:#F37516"/>
			<stop  offset="0.7154" style="stop-color:#F49718"/>
			<stop  offset="0.7686" style="stop-color:#F5AF19"/>
		</linearGradient>
		<path class="st2" d="M573.5,71.1L459.7,99.3l-85.9,84.9l-43.2-43.2c-11.9-11.9-31.3-11.9-43.2,0c-11.9,11.9-11.9,31.3,0,43.2
			l86.1,86.2v0.2l0.1-0.1l0.1,0.1L573.5,71.1z"/>
	</g>
	<path class="st3" d="M196.7,303.3c-23,23-50.3,34.4-82,34.4c-31.7,0-58.7-11.2-81.2-33.6C11.2,281.7,0,254.7,0,223
		c0-31.7,11.2-58.8,33.6-81.2c22.4-22.4,49.5-33.6,81.2-33.6c31.7,0,58.8,11.2,81.2,33.6c22.4,22.4,33.6,49.5,33.6,81.2v98.4
		c0,4.5-1.6,8.4-4.8,11.6c-3.2,3.2-7.1,4.8-11.6,4.8c-4.5,0-8.4-1.6-11.6-4.8c-3.2-3.2-4.8-7.1-4.8-11.6V303.3z M114.8,141
		c-22.7,0-42,8-58,24c-16,16-24,35.3-24,58c0,22.7,8,42,24,58c16,16,35.3,24,58,24s42-8,58-24c16-16,24-35.3,24-58
		c0-22.7-8-42-24-58C156.8,149,137.4,141,114.8,141z"/>
	<path class="st3" d="M723.7,16.9c0-4.6,1.7-8.6,5-11.9c3.3-3.3,7.3-5,11.9-5c4.7,0,8.6,1.7,11.9,5c3.3,3.3,4.9,7.3,4.9,11.9v202.8
		c0,32.6-11.5,60.4-34.6,83.5c-23.1,23.1-50.9,34.6-83.5,34.6c-32.6,0-60.4-11.5-83.5-34.6c-23-23-34.6-50.9-34.6-83.5
		c0-32.6,11.5-60.4,34.6-83.5c23.1-23,50.9-34.6,83.5-34.6c32.6,0,60.4,11.5,83.5,34.6c0.3,0.3,0.5,0.6,0.8,0.8V16.9z M723.7,219.7
		c0-23.3-8.2-43.2-24.6-59.7c-16.5-16.5-36.3-24.7-59.7-24.7c-23.3,0-43.2,8.2-59.7,24.7c-16.4,16.4-24.6,36.3-24.6,59.7
		c0,23.3,8.2,43.2,24.6,59.7c16.5,16.4,36.4,24.7,59.7,24.7c23.3,0,43.2-8.2,59.7-24.7C715.5,262.9,723.7,243,723.7,219.7z"/>
	<path class="st3" d="M818.8,89.8c-6,0-11.2-2.2-15.5-6.5c-4.3-4.3-6.5-9.5-6.5-15.5c0-6,2.2-11.2,6.5-15.5
		c4.3-4.3,9.5-6.5,15.5-6.5c6,0,11.2,2.2,15.5,6.5c4.4,4.3,6.5,9.5,6.5,15.5c0,6-2.2,11.2-6.5,15.5C830,87.6,824.8,89.8,818.8,89.8"
		/>
	<path class="st3" d="M830.8,116.9c-3.3-3.3-7.3-5-11.9-5c-4.6,0-8.6,1.7-11.9,5c-3.3,3.3-5,7.3-5,11.9v190.3
		c0,4.6,1.6,8.6,4.9,11.9c3.3,3.3,7.3,5,11.9,5c4.6,0,8.6-1.7,11.9-5c3.3-3.3,5-7.3,5-11.9V128.8
		C835.7,124.1,834.1,120.2,830.8,116.9z"/>
	<g>
		<path class="st3" d="M981.1,117.7c0-4.9-1.8-9.1-5.2-12.6c-3.3-3.3-7.2-5-11.7-5.2v-0.1h-0.9h-35.7h-40.1c-4.9,0-9.1,1.7-12.6,5.2
			c-3.5,3.5-5.3,7.7-5.3,12.6c0,4.9,1.8,9.1,5.3,12.6c3.5,3.5,7.7,5.3,12.6,5.3h40.1h35.7h0.9v-0.1c4.5-0.2,8.4-1.9,11.7-5.2
			C979.3,126.8,981.1,122.6,981.1,117.7z"/>
		<path class="st3" d="M980.9,0.7l-12.7,0.6c-16.7,1-28.8,5.7-28.8,5.7c-42.4,15.7-41.3,59.4-41.3,64.8v7.3c0,0,0,0.1,0,0.1v49.4
			v140.9v49.4c0,4.6,1.6,8.6,4.9,11.9c3.3,3.3,7.3,5,11.9,5c4.6,0,8.6-1.7,11.9-5c3.3-3.3,5-7.3,5-11.9v-49.4V128.8V79.3
			c0-0.1,0-0.2,0-0.3l0.3-7.2c0.9-3.6,0.7-32,29.8-35.5c7.7-0.6,18.9-0.7,18.9-0.7C982.5,33.4,1000,0,1000,0S982.3,0.6,980.9,0.7z"
			/>
	</g>
</g>
</svg>
